<svg width="20" height="20" viewBox="0 0 20 20" fill="none" xmlns="http://www.w3.org/2000/svg">
<path fill-rule="evenodd" clip-rule="evenodd" d="M13.5795 8.00449L9.77283 13.0045C9.61616 13.2103 9.37366 13.332 9.11533 13.3337H9.10949C8.85366 13.3337 8.61199 13.2153 8.45366 13.0137L6.42699 10.4245C6.14366 10.0628 6.20699 9.53866 6.56949 9.25533C6.93116 8.97116 7.45616 9.03449 7.73949 9.39783L9.10033 11.1362L12.2537 6.99533C12.532 6.62949 13.0545 6.55783 13.422 6.83699C13.7878 7.11616 13.8587 7.63866 13.5795 8.00449ZM10.0003 1.66699C5.39783 1.66699 1.66699 5.39783 1.66699 10.0003C1.66699 14.602 5.39783 18.3337 10.0003 18.3337C14.6028 18.3337 18.3337 14.602 18.3337 10.0003C18.3337 5.39783 14.6028 1.66699 10.0003 1.66699Z" fill="#1B8D17"/>
<mask id="mask0_68_2032" style="mask-type:luminance" maskUnits="userSpaceOnUse" x="1" y="1" width="18" height="18">
<path fill-rule="evenodd" clip-rule="evenodd" d="M13.5795 8.00449L9.77283 13.0045C9.61616 13.2103 9.37366 13.332 9.11533 13.3337H9.10949C8.85366 13.3337 8.61199 13.2153 8.45366 13.0137L6.42699 10.4245C6.14366 10.0628 6.20699 9.53866 6.56949 9.25533C6.93116 8.97116 7.45616 9.03449 7.73949 9.39783L9.10033 11.1362L12.2537 6.99533C12.532 6.62949 13.0545 6.55783 13.422 6.83699C13.7878 7.11616 13.8587 7.63866 13.5795 8.00449ZM10.0003 1.66699C5.39783 1.66699 1.66699 5.39783 1.66699 10.0003C1.66699 14.602 5.39783 18.3337 10.0003 18.3337C14.6028 18.3337 18.3337 14.602 18.3337 10.0003C18.3337 5.39783 14.6028 1.66699 10.0003 1.66699Z" fill="white"/>
</mask>
<g mask="url(#mask0_68_2032)">
<rect width="20" height="20" fill="#1B8D17"/>
</g>
</svg>
