<svg width="22" height="22" viewBox="0 0 22 22" fill="none" xmlns="http://www.w3.org/2000/svg">
<g clip-path="url(#clip0_68_3648)">
<path d="M21.2088 10.8997C21.2088 10.0457 21.1395 9.42259 20.9895 8.77637H11.2383V12.6306H16.962C16.8467 13.5885 16.2235 15.031 14.8387 16.0003L14.8193 16.1293L17.9024 18.5178L18.1161 18.5391C20.0778 16.7273 21.2088 14.0616 21.2088 10.8997Z" fill="#4285F4"/>
<path d="M11.2371 21.0554C14.0412 21.0554 16.3954 20.1322 18.1149 18.5397L14.8375 16.0009C13.9605 16.6125 12.7834 17.0395 11.2371 17.0395C8.49061 17.0395 6.15957 15.2278 5.32862 12.7236L5.20682 12.734L2.00091 15.2151L1.95898 15.3316C3.66687 18.7243 7.17501 21.0554 11.2371 21.0554Z" fill="#34A853"/>
<path d="M5.32704 12.7228C5.10779 12.0766 4.9809 11.3842 4.9809 10.6687C4.9809 9.95322 5.10779 9.26085 5.31551 8.61462L5.3097 8.47699L2.06362 5.95605L1.95741 6.00657C1.25351 7.41446 0.849609 8.99545 0.849609 10.6687C0.849609 12.342 1.25351 13.9229 1.95741 15.3308L5.32704 12.7228Z" fill="#FBBC05"/>
<path d="M11.2371 4.29906C13.1873 4.29906 14.5028 5.14147 15.2529 5.84545L18.1841 2.98354C16.3839 1.31026 14.0412 0.283203 11.2371 0.283203C7.17501 0.283203 3.66687 2.61424 1.95898 6.00695L5.31708 8.615C6.15957 6.11085 8.49061 4.29906 11.2371 4.29906Z" fill="#EB4335"/>
</g>
<defs>
<clipPath id="clip0_68_3648">
<rect width="20.3682" height="20.8434" fill="white" transform="translate(0.849609 0.283203)"/>
</clipPath>
</defs>
</svg>
